<svg width="24" height="24" viewBox="0 0 24 24" fill="none" xmlns="http://www.w3.org/2000/svg">
<path d="M17.94 17.94C16.23 19.24 14.18 20 12 20C5 20 1 12 1 12C2.24 9.68 3.97 7.66 6.06 6.06M9.9 4.24C10.59 4.08 11.29 4 12 4C19 4 23 12 23 12C22.39 13.13 21.69 14.18 20.88 15.12M14.12 14.12C13.56 14.72 12.8 15.07 12 15.07C11.2 15.07 10.44 14.72 9.88 14.12C9.32 13.52 9 12.72 9 11.88C9 11.04 9.32 10.24 9.88 9.64" stroke="#7A7A7A" stroke-width="1.5" stroke-linecap="round" stroke-linejoin="round"/>
<path d="M1 1L23 23" stroke="#7A7A7A" stroke-width="1.5" stroke-linecap="round" stroke-linejoin="round"/>
</svg>